<svg width="14" height="8" viewBox="0 0 14 8" fill="none" xmlns="http://www.w3.org/2000/svg">
<path d="M0.308001 1.6816C-0.102667 1.29691 -0.102667 0.673207 0.308001 0.288517C0.718669 -0.0961724 1.38449 -0.0961724 1.79516 0.288517L7.7438 5.86085C8.15447 6.24554 8.15447 6.86925 7.7438 7.25394C7.33313 7.63863 6.66731 7.63863 6.25664 7.25394L0.308001 1.6816Z" fill="#7D7E84"/>
<path d="M12.1324 0.288542C12.5431 -0.0961446 13.2089 -0.0961431 13.6196 0.288545C14.0302 0.673234 14.0302 1.29694 13.6196 1.68162L7.67088 7.25391C7.26021 7.6386 6.59438 7.6386 6.18371 7.25391C5.77304 6.86922 5.77305 6.24552 6.18372 5.86083L12.1324 0.288542Z" fill="#7D7E84"/>
</svg>
