<svg width="22" height="23" viewBox="0 0 22 23" fill="none" xmlns="http://www.w3.org/2000/svg">
<path d="M5.38267 2.71894C5.38267 2.18118 5.22483 1.65551 4.9291 1.20838C4.63337 0.761251 4.21304 0.412758 3.72127 0.206968C3.22949 0.00117847 2.68835 -0.0526661 2.16628 0.0522447C1.64422 0.157156 1.16467 0.41611 0.788276 0.796361C0.411886 1.17661 0.15556 1.66108 0.0517143 2.1885C-0.0521314 2.71592 0.0011665 3.26261 0.204867 3.75943C0.408568 4.25625 0.753523 4.68089 1.19611 4.97966C1.6387 5.27842 2.15904 5.43788 2.69134 5.43788C3.40512 5.43788 4.08967 5.15142 4.5944 4.64152C5.09912 4.13162 5.38267 3.44005 5.38267 2.71894ZM1.67522 2.71894C1.67522 2.51042 1.73642 2.30659 1.85109 2.13321C1.96576 1.95984 2.12875 1.82471 2.31944 1.74491C2.51013 1.66511 2.71996 1.64424 2.92239 1.68492C3.12483 1.72559 3.31077 1.82601 3.45672 1.97345C3.60267 2.12089 3.70206 2.30875 3.74233 2.51326C3.78259 2.71777 3.76193 2.92975 3.68294 3.1224C3.60395 3.31504 3.4702 3.4797 3.29858 3.59554C3.12696 3.71139 2.9252 3.77322 2.7188 3.77322C2.44202 3.77322 2.17659 3.66215 1.98088 3.46443C1.78517 3.26671 1.67522 2.99855 1.67522 2.71894Z" transform="translate(6.04177 17.5621)" fill="white"/>
<path d="M5.38267 2.71894C5.38267 2.18118 5.22483 1.65551 4.9291 1.20838C4.63337 0.761251 4.21304 0.412758 3.72127 0.206968C3.22949 0.00117847 2.68835 -0.0526661 2.16628 0.0522447C1.64421 0.157156 1.16466 0.41611 0.788275 0.796361C0.411885 1.17661 0.15556 1.66108 0.0517146 2.1885C-0.0521312 2.71592 0.00116572 3.26261 0.204866 3.75943C0.408567 4.25625 0.753524 4.68089 1.19611 4.97966C1.6387 5.27842 2.15904 5.43788 2.69134 5.43788C3.40512 5.43788 4.08967 5.15142 4.5944 4.64152C5.09912 4.13162 5.38267 3.44005 5.38267 2.71894ZM1.67522 2.71894C1.67522 2.51042 1.73643 2.30659 1.8511 2.13321C1.96576 1.95984 2.12875 1.82471 2.31944 1.74491C2.51013 1.66511 2.71996 1.64424 2.92239 1.68492C3.12482 1.72559 3.31077 1.82601 3.45672 1.97345C3.60267 2.12089 3.70206 2.30875 3.74233 2.51326C3.78259 2.71777 3.76193 2.92975 3.68294 3.1224C3.60395 3.31504 3.4702 3.4797 3.29858 3.59554C3.12696 3.71139 2.9252 3.77322 2.7188 3.77322C2.44202 3.77322 2.17659 3.66215 1.98088 3.46443C1.78517 3.26671 1.67522 2.99855 1.67522 2.71894Z" transform="translate(13.8961 17.5621)" fill="white"/>
<path d="M5.19043 2.99638C5.04802 2.1585 4.61722 1.39837 3.97407 0.850141C3.33091 0.30191 2.51673 0.000817112 1.67522 0H0.823878C0.605372 0 0.395816 0.0876914 0.241308 0.243783C0.0868013 0.399875 0 0.611581 0 0.832328C0 1.05308 0.0868013 1.26478 0.241308 1.42087C0.395816 1.57696 0.605372 1.66466 0.823878 1.66466H1.67522C2.12809 1.66442 2.56651 1.82571 2.91317 2.1201C3.25984 2.41449 3.4925 2.82308 3.57014 3.27382L5.35521 13.8999C5.47188 14.6105 5.83363 15.2566 6.37644 15.7237C6.91924 16.1909 7.60812 16.449 8.32117 16.4524H20.6519C20.8704 16.4524 21.0799 16.3647 21.2344 16.2086C21.389 16.0525 21.4758 15.8408 21.4758 15.62C21.4758 15.3993 21.389 15.1876 21.2344 15.0315C21.0799 14.8754 20.8704 14.7877 20.6519 14.7877H8.32117C7.99676 14.7854 7.68364 14.6671 7.43732 14.4538C7.19101 14.2405 7.0274 13.946 6.9755 13.6224L6.89311 13.1785H16.9444C17.5479 13.1819 18.1384 13.0009 18.6383 12.6593C19.1381 12.3177 19.5241 11.8314 19.7456 11.2642L21.9426 5.68758C21.9919 5.56117 22.0099 5.42448 21.9949 5.28946C21.9798 5.15444 21.9323 5.02519 21.8565 4.91298C21.7806 4.80078 21.6787 4.70904 21.5597 4.64578C21.4407 4.58252 21.3082 4.54965 21.1737 4.55006H5.46506L5.19043 2.99638ZM19.9653 6.18697L18.2077 10.6261C18.109 10.8846 17.9359 11.1073 17.7107 11.2655C17.4856 11.4238 17.2187 11.5103 16.9444 11.5139H6.61849L5.73968 6.18697H19.9653Z" fill="white"/>
</svg>
