<svg width="99" height="99" viewBox="0 0 99 99" version="1.1" xmlns="http://www.w3.org/2000/svg" xmlns:xlink="http://www.w3.org/1999/xlink">
<g id="Canvas" fill="none">
<g id="bitcoin" clip-path="url(#clip0)">
<g id="bitcoin_2">
<path id="Subtract" fill-rule="evenodd" clip-rule="evenodd" d="M 34.1097 88.6532C 58.2226 94.6635 82.6435 79.9936 88.6544 55.8863L 88.653 55.8863C 94.664 31.7777 79.9924 7.3569 55.8809 1.34661C 31.7751 -4.66367 7.35558 10.0091 1.34746 34.1191C -4.66499 58.2249 10.0081 82.6429 34.1097 88.6532ZM 54.9443 27.2355C 61.1789 29.3829 65.7384 32.6018 64.844 38.5895L 64.8426 38.5895C 64.1942 42.9728 61.7639 45.0948 58.5376 45.8415C 62.9678 48.1492 65.2209 51.6859 63.0733 57.8171C 60.411 65.4305 54.0779 66.0732 45.6577 64.4799L 43.6142 72.6684L 38.6763 71.438L 40.6931 63.3591C 39.4133 63.0413 38.1053 62.7038 36.7594 62.3382L 34.7342 70.455L 29.8019 69.2245L 31.8454 61.0191C 31.3929 60.9031 30.9373 60.7843 30.4785 60.6646C 29.7694 60.4796 29.0524 60.2925 28.3266 60.1107L 21.8993 58.509L 24.3507 52.8559C 24.3507 52.8559 27.989 53.8234 27.9398 53.7517C 29.3378 54.0976 29.958 53.1863 30.2027 52.5788L 33.4333 39.6344L 33.9536 39.7638C 33.7567 39.685 33.5781 39.6344 33.4403 39.5992L 35.744 30.3588C 35.8058 29.3097 35.443 27.9865 33.4431 27.4873C 33.5204 27.4352 29.8567 26.5957 29.8567 26.5957L 31.1703 21.3223L 37.9802 23.0224L 37.9745 23.0477C 38.9984 23.3023 40.0532 23.5441 41.1277 23.7888L 43.1515 15.6804L 48.0866 16.9109L 46.1036 24.8604C 47.4284 25.1627 48.7617 25.4679 50.0584 25.7913L 52.0274 17.8939L 56.9667 19.1243L 54.9443 27.2355ZM 39.3196 56.6429C 43.3475 57.7073 52.1585 60.0357 53.5604 54.4084L 53.5618 54.4084C 54.9925 48.6568 46.4528 46.7407 42.2858 45.8058C 41.8202 45.7013 41.4092 45.6091 41.0728 45.5251L 38.3613 56.394C 38.6365 56.4624 38.9589 56.5476 39.3196 56.6429ZM 43.1234 40.7622C 46.4842 41.6587 53.8101 43.6129 55.0863 38.5009C 56.391 33.2712 49.2674 31.695 45.7883 30.9252C 45.3972 30.8386 45.0521 30.7623 44.7703 30.6921L 42.3119 40.5498C 42.5445 40.6078 42.8175 40.6806 43.1234 40.7622Z" transform="translate(4 4)" fill="#F7931A"/>
</g>
</g>
</g>
<defs>
<clipPath id="clip0">
<rect width="99" height="99" fill="white"/>
</clipPath>
</defs>
</svg>
