<svg width="77" height="92" viewBox="0 0 77 92" fill="none" xmlns="http://www.w3.org/2000/svg">
<path fill-rule="evenodd" clip-rule="evenodd" d="M20 6C20 2.68629 22.6863 0 26 0H49C52.3137 0 55 2.68629 55 6V14H77V20H0V14H20V6ZM26 6H49V13H26V6Z" fill="black"/>
<path fill-rule="evenodd" clip-rule="evenodd" d="M63 35H12V86H63V35ZM6 29V87C6 89.7614 8.23858 92 11 92H64C66.7614 92 69 89.7614 69 87V29H6Z" fill="black"/>
<path fill-rule="evenodd" clip-rule="evenodd" d="M20 90.5V30H26V90.5H20Z" fill="black"/>
<path fill-rule="evenodd" clip-rule="evenodd" d="M35 90.5V30H41V90.5H35Z" fill="black"/>
<path fill-rule="evenodd" clip-rule="evenodd" d="M49 90.5V30H55V90.5H49Z" fill="black"/>
</svg>
