<svg width="155" height="28" viewBox="0 0 155 28" fill="none" xmlns="http://www.w3.org/2000/svg">
<path d="M40.004 9.622C40.586 9.622 41.12 9.715 41.606 9.901C42.098 10.087 42.521 10.36 42.875 10.72C43.229 11.074 43.505 11.512 43.703 12.034C43.901 12.55 44 13.141 44 13.807C44 13.975 43.991 14.116 43.973 14.23C43.961 14.338 43.934 14.425 43.892 14.491C43.856 14.551 43.805 14.596 43.739 14.626C43.673 14.65 43.589 14.662 43.487 14.662H37.781C37.847 15.61 38.102 16.306 38.546 16.75C38.99 17.194 39.578 17.416 40.31 17.416C40.67 17.416 40.979 17.374 41.237 17.29C41.501 17.206 41.729 17.113 41.921 17.011C42.119 16.909 42.29 16.816 42.434 16.732C42.584 16.648 42.728 16.606 42.866 16.606C42.956 16.606 43.034 16.624 43.1 16.66C43.166 16.696 43.223 16.747 43.271 16.813L43.919 17.623C43.673 17.911 43.397 18.154 43.091 18.352C42.785 18.544 42.464 18.7 42.128 18.82C41.798 18.934 41.459 19.015 41.111 19.063C40.769 19.111 40.436 19.135 40.112 19.135C39.47 19.135 38.873 19.03 38.321 18.82C37.769 18.604 37.289 18.289 36.881 17.875C36.473 17.455 36.152 16.939 35.918 16.327C35.684 15.709 35.567 14.995 35.567 14.185C35.567 13.555 35.669 12.964 35.873 12.412C36.077 11.854 36.368 11.371 36.746 10.963C37.13 10.549 37.595 10.222 38.141 9.982C38.693 9.742 39.314 9.622 40.004 9.622ZM40.049 11.215C39.401 11.215 38.894 11.398 38.528 11.764C38.162 12.13 37.928 12.649 37.826 13.321H42.002C42.002 13.033 41.963 12.763 41.885 12.511C41.807 12.253 41.687 12.028 41.525 11.836C41.363 11.644 41.159 11.494 40.913 11.386C40.667 11.272 40.379 11.215 40.049 11.215ZM52.4812 10.684C52.4812 10.84 52.4512 10.993 52.3912 11.143C52.3372 11.287 52.2712 11.41 52.1932 11.512L47.8012 17.29H52.3552V19H45.2182V18.073C45.2182 17.971 45.2422 17.851 45.2902 17.713C45.3382 17.569 45.4132 17.434 45.5152 17.308L49.9432 11.467H45.4792V9.766H52.4812V10.684ZM60.9363 10.684C60.9363 10.84 60.9063 10.993 60.8463 11.143C60.7923 11.287 60.7263 11.41 60.6483 11.512L56.2563 17.29H60.8103V19H53.6733V18.073C53.6733 17.971 53.6973 17.851 53.7453 17.713C53.7933 17.569 53.8683 17.434 53.9703 17.308L58.3983 11.467H53.9343V9.766H60.9363V10.684ZM66.6554 9.622C67.3454 9.622 67.9694 9.733 68.5274 9.955C69.0914 10.177 69.5714 10.492 69.9674 10.9C70.3634 11.308 70.6694 11.806 70.8854 12.394C71.1014 12.982 71.2094 13.639 71.2094 14.365C71.2094 15.097 71.1014 15.757 70.8854 16.345C70.6694 16.933 70.3634 17.434 69.9674 17.848C69.5714 18.262 69.0914 18.58 68.5274 18.802C67.9694 19.024 67.3454 19.135 66.6554 19.135C65.9654 19.135 65.3384 19.024 64.7744 18.802C64.2104 18.58 63.7274 18.262 63.3254 17.848C62.9294 17.434 62.6204 16.933 62.3984 16.345C62.1824 15.757 62.0744 15.097 62.0744 14.365C62.0744 13.639 62.1824 12.982 62.3984 12.394C62.6204 11.806 62.9294 11.308 63.3254 10.9C63.7274 10.492 64.2104 10.177 64.7744 9.955C65.3384 9.733 65.9654 9.622 66.6554 9.622ZM66.6554 17.425C67.4234 17.425 67.9904 17.167 68.3564 16.651C68.7284 16.135 68.9144 15.379 68.9144 14.383C68.9144 13.387 68.7284 12.628 68.3564 12.106C67.9904 11.584 67.4234 11.323 66.6554 11.323C65.8754 11.323 65.2994 11.587 64.9274 12.115C64.5554 12.637 64.3694 13.393 64.3694 14.383C64.3694 15.373 64.5554 16.129 64.9274 16.651C65.2994 17.167 65.8754 17.425 66.6554 17.425ZM79.4329 11.719C79.3669 11.803 79.3009 11.869 79.2349 11.917C79.1749 11.965 79.0849 11.989 78.9649 11.989C78.8509 11.989 78.7399 11.956 78.6319 11.89C78.5239 11.818 78.3949 11.74 78.2449 11.656C78.0949 11.566 77.9149 11.488 77.7049 11.422C77.5009 11.35 77.2459 11.314 76.9399 11.314C76.5499 11.314 76.2079 11.386 75.9139 11.53C75.6199 11.668 75.3739 11.869 75.1759 12.133C74.9839 12.397 74.8399 12.718 74.7439 13.096C74.6479 13.468 74.5999 13.891 74.5999 14.365C74.5999 14.857 74.6509 15.295 74.7529 15.679C74.8609 16.063 75.0139 16.387 75.2119 16.651C75.4099 16.909 75.6499 17.107 75.9319 17.245C76.2139 17.377 76.5319 17.443 76.8859 17.443C77.2399 17.443 77.5249 17.401 77.7409 17.317C77.9629 17.227 78.1489 17.131 78.2989 17.029C78.4489 16.921 78.5779 16.825 78.6859 16.741C78.7999 16.651 78.9259 16.606 79.0639 16.606C79.2439 16.606 79.3789 16.675 79.4689 16.813L80.1079 17.623C79.8619 17.911 79.5949 18.154 79.3069 18.352C79.0189 18.544 78.7189 18.7 78.4069 18.82C78.1009 18.934 77.7829 19.015 77.4529 19.063C77.1229 19.111 76.7959 19.135 76.4719 19.135C75.9019 19.135 75.3649 19.03 74.8609 18.82C74.3569 18.604 73.9159 18.292 73.5379 17.884C73.1659 17.476 72.8689 16.978 72.6469 16.39C72.4309 15.796 72.3229 15.121 72.3229 14.365C72.3229 13.687 72.4189 13.06 72.6109 12.484C72.8089 11.902 73.0969 11.401 73.4749 10.981C73.8529 10.555 74.3209 10.222 74.8789 9.982C75.4369 9.742 76.0789 9.622 76.8049 9.622C77.4949 9.622 78.0979 9.733 78.6139 9.955C79.1359 10.177 79.6039 10.495 80.0179 10.909L79.4329 11.719ZM88.758 19H87.759C87.549 19 87.384 18.97 87.264 18.91C87.144 18.844 87.054 18.715 86.994 18.523L86.796 17.866C86.562 18.076 86.331 18.262 86.103 18.424C85.881 18.58 85.65 18.712 85.41 18.82C85.17 18.928 84.915 19.009 84.645 19.063C84.375 19.117 84.075 19.144 83.745 19.144C83.355 19.144 82.995 19.093 82.665 18.991C82.335 18.883 82.05 18.724 81.81 18.514C81.576 18.304 81.393 18.043 81.261 17.731C81.129 17.419 81.063 17.056 81.063 16.642C81.063 16.294 81.153 15.952 81.333 15.616C81.519 15.274 81.825 14.968 82.251 14.698C82.677 14.422 83.244 14.194 83.952 14.014C84.66 13.834 85.539 13.732 86.589 13.708V13.168C86.589 12.55 86.457 12.094 86.193 11.8C85.935 11.5 85.557 11.35 85.059 11.35C84.699 11.35 84.399 11.392 84.159 11.476C83.919 11.56 83.709 11.656 83.529 11.764C83.355 11.866 83.193 11.959 83.043 12.043C82.893 12.127 82.728 12.169 82.548 12.169C82.398 12.169 82.269 12.13 82.161 12.052C82.053 11.974 81.966 11.878 81.9 11.764L81.495 11.053C82.557 10.081 83.838 9.595 85.338 9.595C85.878 9.595 86.358 9.685 86.778 9.865C87.204 10.039 87.564 10.285 87.858 10.603C88.152 10.915 88.374 11.29 88.524 11.728C88.68 12.166 88.758 12.646 88.758 13.168V19ZM84.438 17.614C84.666 17.614 84.876 17.593 85.068 17.551C85.26 17.509 85.44 17.446 85.608 17.362C85.782 17.278 85.947 17.176 86.103 17.056C86.265 16.93 86.427 16.783 86.589 16.615V15.058C85.941 15.088 85.398 15.145 84.96 15.229C84.528 15.307 84.18 15.409 83.916 15.535C83.652 15.661 83.463 15.808 83.349 15.976C83.241 16.144 83.187 16.327 83.187 16.525C83.187 16.915 83.301 17.194 83.529 17.362C83.763 17.53 84.066 17.614 84.438 17.614ZM90.9439 19V9.766H92.2489C92.4769 9.766 92.6359 9.808 92.7259 9.892C92.8159 9.976 92.8759 10.12 92.9059 10.324L93.0409 11.44C93.3709 10.87 93.7579 10.42 94.2019 10.09C94.6459 9.76 95.1439 9.595 95.6959 9.595C96.1519 9.595 96.5299 9.7 96.8299 9.91L96.5419 11.575C96.5239 11.683 96.4849 11.761 96.4249 11.809C96.3649 11.851 96.2839 11.872 96.1819 11.872C96.0919 11.872 95.9689 11.851 95.8129 11.809C95.6569 11.767 95.4499 11.746 95.1919 11.746C94.7299 11.746 94.3339 11.875 94.0039 12.133C93.6739 12.385 93.3949 12.757 93.1669 13.249V19H90.9439ZM104.79 19C104.502 19 104.313 18.865 104.223 18.595L104.043 17.704C103.851 17.92 103.65 18.115 103.44 18.289C103.23 18.463 103.002 18.613 102.756 18.739C102.516 18.865 102.255 18.961 101.973 19.027C101.697 19.099 101.397 19.135 101.073 19.135C100.569 19.135 100.107 19.03 99.6865 18.82C99.2665 18.61 98.9035 18.307 98.5975 17.911C98.2975 17.509 98.0635 17.014 97.8955 16.426C97.7335 15.838 97.6525 15.166 97.6525 14.41C97.6525 13.726 97.7455 13.09 97.9315 12.502C98.1175 11.914 98.3845 11.404 98.7325 10.972C99.0805 10.54 99.4975 10.204 99.9835 9.964C100.47 9.718 101.016 9.595 101.622 9.595C102.138 9.595 102.579 9.679 102.945 9.847C103.311 10.009 103.638 10.228 103.926 10.504V5.626H106.149V19H104.79ZM101.829 17.371C102.291 17.371 102.684 17.275 103.008 17.083C103.332 16.891 103.638 16.618 103.926 16.264V12.124C103.674 11.818 103.398 11.602 103.098 11.476C102.804 11.35 102.486 11.287 102.144 11.287C101.808 11.287 101.502 11.35 101.226 11.476C100.956 11.602 100.725 11.794 100.533 12.052C100.347 12.304 100.203 12.628 100.101 13.024C99.9985 13.414 99.9475 13.876 99.9475 14.41C99.9475 14.95 99.9895 15.409 100.074 15.787C100.164 16.159 100.29 16.465 100.452 16.705C100.614 16.939 100.812 17.11 101.046 17.218C101.28 17.32 101.541 17.371 101.829 17.371Z" fill="white"/>
<rect x="113" y="3" width="42" height="21" rx="2" fill="#F5CC43"/>
<path d="M124.677 11.219C124.611 11.303 124.545 11.369 124.479 11.417C124.419 11.465 124.329 11.489 124.209 11.489C124.095 11.489 123.984 11.456 123.876 11.39C123.768 11.318 123.639 11.24 123.489 11.156C123.339 11.066 123.159 10.988 122.949 10.922C122.745 10.85 122.49 10.814 122.184 10.814C121.794 10.814 121.452 10.886 121.158 11.03C120.864 11.168 120.618 11.369 120.42 11.633C120.228 11.897 120.084 12.218 119.988 12.596C119.892 12.968 119.844 13.391 119.844 13.865C119.844 14.357 119.895 14.795 119.997 15.179C120.105 15.563 120.258 15.887 120.456 16.151C120.654 16.409 120.894 16.607 121.176 16.745C121.458 16.877 121.776 16.943 122.13 16.943C122.484 16.943 122.769 16.901 122.985 16.817C123.207 16.727 123.393 16.631 123.543 16.529C123.693 16.421 123.822 16.325 123.93 16.241C124.044 16.151 124.17 16.106 124.308 16.106C124.488 16.106 124.623 16.175 124.713 16.313L125.352 17.123C125.106 17.411 124.839 17.654 124.551 17.852C124.263 18.044 123.963 18.2 123.651 18.32C123.345 18.434 123.027 18.515 122.697 18.563C122.367 18.611 122.04 18.635 121.716 18.635C121.146 18.635 120.609 18.53 120.105 18.32C119.601 18.104 119.16 17.792 118.782 17.384C118.41 16.976 118.113 16.478 117.891 15.89C117.675 15.296 117.567 14.621 117.567 13.865C117.567 13.187 117.663 12.56 117.855 11.984C118.053 11.402 118.341 10.901 118.719 10.481C119.097 10.055 119.565 9.722 120.123 9.482C120.681 9.242 121.323 9.122 122.049 9.122C122.739 9.122 123.342 9.233 123.858 9.455C124.38 9.677 124.848 9.995 125.262 10.409L124.677 11.219ZM130.708 9.122C131.398 9.122 132.022 9.233 132.58 9.455C133.144 9.677 133.624 9.992 134.02 10.4C134.416 10.808 134.722 11.306 134.938 11.894C135.154 12.482 135.262 13.139 135.262 13.865C135.262 14.597 135.154 15.257 134.938 15.845C134.722 16.433 134.416 16.934 134.02 17.348C133.624 17.762 133.144 18.08 132.58 18.302C132.022 18.524 131.398 18.635 130.708 18.635C130.018 18.635 129.391 18.524 128.827 18.302C128.263 18.08 127.78 17.762 127.378 17.348C126.982 16.934 126.673 16.433 126.451 15.845C126.235 15.257 126.127 14.597 126.127 13.865C126.127 13.139 126.235 12.482 126.451 11.894C126.673 11.306 126.982 10.808 127.378 10.4C127.78 9.992 128.263 9.677 128.827 9.455C129.391 9.233 130.018 9.122 130.708 9.122ZM130.708 16.925C131.476 16.925 132.043 16.667 132.409 16.151C132.781 15.635 132.967 14.879 132.967 13.883C132.967 12.887 132.781 12.128 132.409 11.606C132.043 11.084 131.476 10.823 130.708 10.823C129.928 10.823 129.352 11.087 128.98 11.615C128.608 12.137 128.422 12.893 128.422 13.883C128.422 14.873 128.608 15.629 128.98 16.151C129.352 16.667 129.928 16.925 130.708 16.925ZM136.997 18.5V9.266H138.356C138.644 9.266 138.833 9.401 138.923 9.671L139.067 10.355C139.229 10.175 139.397 10.01 139.571 9.86C139.751 9.71 139.94 9.581 140.138 9.473C140.342 9.365 140.558 9.281 140.786 9.221C141.02 9.155 141.275 9.122 141.551 9.122C142.133 9.122 142.61 9.281 142.982 9.599C143.36 9.911 143.642 10.328 143.828 10.85C143.972 10.544 144.152 10.283 144.368 10.067C144.584 9.845 144.821 9.665 145.079 9.527C145.337 9.389 145.61 9.287 145.898 9.221C146.192 9.155 146.486 9.122 146.78 9.122C147.29 9.122 147.743 9.2 148.139 9.356C148.535 9.512 148.868 9.74 149.138 10.04C149.408 10.34 149.612 10.706 149.75 11.138C149.894 11.57 149.966 12.065 149.966 12.623V18.5H147.743V12.623C147.743 12.035 147.614 11.594 147.356 11.3C147.098 11 146.72 10.85 146.222 10.85C145.994 10.85 145.781 10.889 145.583 10.967C145.391 11.045 145.22 11.159 145.07 11.309C144.926 11.453 144.812 11.636 144.728 11.858C144.644 12.08 144.602 12.335 144.602 12.623V18.5H142.37V12.623C142.37 12.005 142.244 11.555 141.992 11.273C141.746 10.991 141.38 10.85 140.894 10.85C140.576 10.85 140.276 10.931 139.994 11.093C139.718 11.249 139.46 11.465 139.22 11.741V18.5H136.997Z" fill="black"/>
<path d="M20.0537 16.4706C19.9391 17.1114 19.7626 17.7311 19.5306 18.3235H15.6491C14.4698 20.1787 12.3806 21.4118 10 21.4118C6.8936 21.4118 4.28344 19.3121 3.54337 16.4706H20.0537Z" fill="#F5CC43"/>
<path d="M10 8.23529C13.1064 8.23529 15.7166 10.3349 16.4566 13.1765H3.54337C4.28344 10.3349 6.8936 8.23529 10 8.23529Z" fill="#F5CC43"/>
<path d="M2.44009 2.17575C4.69775 0.796199 7.35896 0 10.2083 0C18.3776 0 25 6.54454 25 14.6176C25 20.5153 21.4658 25.5972 16.3761 27.9078L14.1832 23.8588C17.7319 22.3096 20.2083 18.8009 20.2083 14.7206C20.2083 9.20586 15.6846 4.73529 10.1042 4.73529C8.1051 4.73529 6.24162 5.30901 4.67313 6.29891L2.44009 2.17575Z" fill="#F5CC43"/>
</svg>