<svg width="40" height="21" viewBox="0 0 40 21" fill="none" xmlns="http://www.w3.org/2000/svg">
<path d="M25.7859 14.8075H18.2129V1.77332H25.7859V14.8075Z" fill="#B6B6B6"/>
<path d="M18.6979 8.2895C18.6979 5.64545 19.9905 3.29021 22.0035 1.77239C20.5315 0.662492 18.6737 2.98046e-05 16.6546 2.98046e-05C11.8747 2.98046e-05 8 3.71129 8 8.2895C8 12.8677 11.8747 16.579 16.6546 16.579C18.6737 16.579 20.5315 15.9165 22.0035 14.8066C19.9905 13.2888 18.6979 10.9336 18.6979 8.2895Z" fill="#C6C6C6"/>
<path d="M36.0002 8.2895C36.0002 12.8677 32.1255 16.579 27.3456 16.579C25.3265 16.579 23.4687 15.9165 21.9961 14.8066C24.0097 13.2888 25.3023 10.9336 25.3023 8.2895C25.3023 5.64545 24.0097 3.29021 21.9961 1.77239C23.4687 0.662492 25.3265 2.98046e-05 27.3456 2.98046e-05C32.1255 2.98046e-05 36.0002 3.71129 36.0002 8.2895Z" fill="#D8D8D8"/>
<path d="M11.8851 20.8807V19.4494C11.894 19.3291 11.8753 19.2083 11.8302 19.0952C11.7851 18.9821 11.7146 18.8792 11.6235 18.7934C11.5323 18.7077 11.4225 18.641 11.3015 18.5978C11.1804 18.5546 11.0509 18.5359 10.9215 18.543C10.7521 18.5326 10.5829 18.5648 10.4314 18.6361C10.2799 18.7075 10.1518 18.8153 10.0604 18.9485C9.97712 18.8193 9.85792 18.7135 9.7154 18.6421C9.57287 18.5708 9.4123 18.5365 9.25061 18.543C9.10966 18.5363 8.9693 18.5641 8.84344 18.6235C8.71757 18.6829 8.61057 18.7719 8.53305 18.8817V18.6002H8V20.8807H8.53817V19.626C8.52672 19.548 8.53393 19.4686 8.55926 19.3935C8.5846 19.3184 8.62745 19.2495 8.68474 19.1916C8.74203 19.1337 8.81236 19.0883 8.89069 19.0587C8.96901 19.029 9.05341 19.0158 9.13785 19.0201C9.4915 19.0201 9.67089 19.2348 9.67089 19.6212V20.8903H10.2091V19.626C10.1981 19.5481 10.2056 19.4689 10.2311 19.394C10.2566 19.3191 10.2995 19.2503 10.3567 19.1925C10.4139 19.1347 10.484 19.0893 10.5621 19.0595C10.6402 19.0297 10.7244 19.0163 10.8087 19.0201C11.1726 19.0201 11.3469 19.2348 11.3469 19.6212V20.8903L11.8851 20.8807ZM19.8475 18.6002H18.971V17.9084H18.4328V18.6002H17.9459V19.0535H18.4431V20.1031C18.4431 20.6326 18.6635 20.9475 19.2939 20.9475C19.5294 20.9483 19.7604 20.8871 19.9602 20.771L19.8065 20.3464C19.6635 20.4257 19.5013 20.4701 19.3349 20.4752C19.0786 20.4752 18.9813 20.3225 18.9813 20.0935V19.0535H19.8526L19.8475 18.6002ZM24.3937 18.543C24.2638 18.5394 24.1352 18.5686 24.0215 18.6273C23.9079 18.6861 23.8133 18.7723 23.7479 18.8769V18.6002H23.22V20.8807H23.753V19.6021C23.753 19.2252 23.9273 19.0153 24.2656 19.0153C24.3796 19.0138 24.4928 19.0333 24.5987 19.0725L24.7628 18.5954C24.641 18.5549 24.5128 18.5339 24.3835 18.5334L24.3937 18.543ZM17.5205 18.7815C17.2188 18.6145 16.8719 18.5317 16.521 18.543C15.9009 18.543 15.496 18.8197 15.496 19.2729C15.496 19.6451 15.7932 19.8741 16.3417 19.9456L16.5979 19.979C16.8901 20.0172 17.0285 20.0887 17.0285 20.2176C17.0285 20.3941 16.8337 20.4943 16.4698 20.4943C16.1771 20.5022 15.89 20.4181 15.6548 20.2557L15.3986 20.6422C15.7091 20.844 16.081 20.9477 16.4595 20.938C17.1669 20.938 17.5769 20.6279 17.5769 20.1937C17.5769 19.7596 17.254 19.583 16.7209 19.5115L16.4647 19.4781C16.234 19.4494 16.0495 19.4065 16.0495 19.2538C16.0495 19.1012 16.2238 18.9867 16.5159 18.9867C16.7859 18.9896 17.0507 19.0569 17.2847 19.1823L17.5205 18.7815ZM31.7974 18.543C31.6675 18.5394 31.5389 18.5686 31.4252 18.6273C31.3116 18.6861 31.217 18.7723 31.1516 18.8769V18.6002H30.6237V20.8807H31.1567V19.6021C31.1567 19.2252 31.331 19.0153 31.6693 19.0153C31.7833 19.0138 31.8965 19.0333 32.0024 19.0725L32.1665 18.5954C32.0447 18.5549 31.9165 18.5339 31.7872 18.5334L31.7974 18.543ZM24.9293 19.7357C24.923 19.896 24.9527 20.0557 25.0164 20.2047C25.0802 20.3536 25.1767 20.4886 25.2997 20.6008C25.4228 20.7131 25.5696 20.8002 25.7309 20.8566C25.8922 20.9131 26.0643 20.9375 26.2363 20.9284C26.5564 20.9436 26.8709 20.8466 27.1179 20.6565L26.8616 20.2557C26.6774 20.3865 26.4527 20.4585 26.2209 20.4609C26.0239 20.446 25.8401 20.3627 25.7061 20.2274C25.5721 20.0922 25.4976 19.9149 25.4976 19.7309C25.4976 19.5469 25.5721 19.3697 25.7061 19.2344C25.8401 19.0992 26.0239 19.0158 26.2209 19.001C26.4527 19.0034 26.6774 19.0753 26.8616 19.2061L27.1179 18.8054C26.8709 18.6153 26.5564 18.5183 26.2363 18.5334C26.0643 18.5244 25.8922 18.5488 25.7309 18.6052C25.5696 18.6616 25.4228 18.7488 25.2997 18.861C25.1767 18.9733 25.0802 19.1082 25.0164 19.2572C24.9527 19.4062 24.923 19.5659 24.9293 19.7262V19.7357ZM29.9215 19.7357V18.6002H29.3885V18.8769C29.2979 18.7685 29.181 18.6817 29.0473 18.6236C28.9137 18.5656 28.7671 18.5379 28.6197 18.543C28.2798 18.543 27.9539 18.6686 27.7136 18.8923C27.4733 19.116 27.3383 19.4194 27.3383 19.7357C27.3383 20.052 27.4733 20.3554 27.7136 20.5791C27.9539 20.8028 28.2798 20.9284 28.6197 20.9284C28.7671 20.9335 28.9137 20.9058 29.0473 20.8478C29.181 20.7897 29.2979 20.7029 29.3885 20.5945V20.8712H29.9215V19.7357ZM27.938 19.7357C27.9465 19.6015 27.997 19.4725 28.0832 19.3646C28.1695 19.2567 28.2878 19.1747 28.4235 19.1286C28.5592 19.0825 28.7064 19.0744 28.847 19.1052C28.9876 19.136 29.1155 19.2044 29.2149 19.302C29.3142 19.3996 29.3808 19.5222 29.4063 19.6545C29.4318 19.7869 29.4152 19.9233 29.3585 20.047C29.3017 20.1706 29.2074 20.2762 29.087 20.3506C28.9667 20.4249 28.8256 20.465 28.6812 20.4657C28.5797 20.4668 28.479 20.4485 28.3856 20.4117C28.2921 20.375 28.2078 20.3206 28.138 20.252C28.0682 20.1835 28.0144 20.1022 27.98 20.0133C27.9455 19.9245 27.9312 19.83 27.938 19.7357ZM21.5055 18.543C21.1657 18.5474 20.8417 18.6773 20.6047 18.9041C20.3678 19.1309 20.2374 19.4361 20.2421 19.7524C20.2469 20.0687 20.3864 20.3703 20.6301 20.5909C20.8738 20.8114 21.2016 20.9329 21.5414 20.9284C21.9101 20.946 22.2727 20.8355 22.5588 20.6183L22.3025 20.251C22.1002 20.402 21.8495 20.486 21.5901 20.4895C21.4139 20.5036 21.2387 20.4532 21.1019 20.3489C20.965 20.2447 20.8772 20.0949 20.8572 19.9313H22.6767C22.6767 19.8693 22.6767 19.8073 22.6767 19.7405C22.6767 19.0248 22.2 18.5477 21.5132 18.5477L21.5055 18.543ZM21.5055 18.9867C21.5853 18.9851 21.6646 18.9981 21.739 19.0251C21.8133 19.0521 21.8812 19.0924 21.9388 19.1438C21.9964 19.1952 22.0425 19.2566 22.0746 19.3246C22.1067 19.3926 22.1241 19.4658 22.1257 19.5401H20.8444C20.8536 19.387 20.927 19.2433 21.0486 19.1399C21.1703 19.0364 21.3306 18.9814 21.4953 18.9867H21.5055ZM34.8599 19.7405V17.6842H34.3473V18.8769C34.2568 18.7685 34.1399 18.6817 34.0062 18.6236C33.8725 18.5656 33.7259 18.5379 33.5785 18.543C33.2387 18.543 32.9128 18.6686 32.6725 18.8923C32.4322 19.116 32.2972 19.4194 32.2972 19.7357C32.2972 20.052 32.4322 20.3554 32.6725 20.5791C32.9128 20.8028 33.2387 20.9284 33.5785 20.9284C33.7259 20.9335 33.8725 20.9058 34.0062 20.8478C34.1399 20.7897 34.2568 20.7029 34.3473 20.5945V20.8712H34.8599V19.7405ZM35.7491 20.5491C35.7825 20.5488 35.8155 20.5544 35.8465 20.5658C35.876 20.577 35.9029 20.5932 35.926 20.6135C35.9485 20.6341 35.9667 20.6584 35.9798 20.6851C35.9928 20.713 35.9995 20.743 35.9995 20.7734C35.9995 20.8037 35.9928 20.8338 35.9798 20.8616C35.9667 20.8884 35.9485 20.9126 35.926 20.9332C35.9029 20.9536 35.876 20.9697 35.8465 20.9809C35.8158 20.9935 35.7827 21 35.7491 21C35.7006 20.9997 35.6531 20.9865 35.6122 20.962C35.5714 20.9375 35.5389 20.9027 35.5185 20.8616C35.5057 20.8337 35.4991 20.8037 35.4991 20.7734C35.4991 20.743 35.5057 20.713 35.5185 20.6851C35.5316 20.6584 35.5498 20.6341 35.5723 20.6135C35.5954 20.5932 35.6223 20.577 35.6518 20.5658C35.6851 20.5535 35.7209 20.5478 35.7568 20.5491H35.7491ZM35.7491 20.9523C35.7747 20.9524 35.8 20.9476 35.8235 20.938C35.8455 20.9288 35.8655 20.9159 35.8824 20.8998C35.9145 20.8672 35.9322 20.8247 35.9322 20.7805C35.9322 20.7364 35.9145 20.6938 35.8824 20.6613C35.8655 20.6452 35.8455 20.6322 35.8235 20.6231C35.8 20.6136 35.7747 20.6087 35.7491 20.6088C35.7236 20.6089 35.6983 20.6138 35.6748 20.6231C35.6518 20.6319 35.6309 20.6449 35.6133 20.6613C35.5813 20.6938 35.5635 20.7364 35.5635 20.7805C35.5635 20.8247 35.5813 20.8672 35.6133 20.8998C35.6309 20.9162 35.6518 20.9291 35.6748 20.938C35.7007 20.9484 35.7287 20.9532 35.7568 20.9523H35.7491ZM35.7645 20.6684C35.7884 20.6673 35.812 20.6741 35.8311 20.6875C35.839 20.6935 35.8452 20.7012 35.8492 20.71C35.8532 20.7187 35.8549 20.7281 35.8542 20.7376C35.8546 20.7455 35.8532 20.7534 35.8501 20.7608C35.847 20.7682 35.8423 20.7749 35.8363 20.7805C35.8214 20.7931 35.8025 20.8006 35.7825 20.802L35.8568 20.8807H35.7978L35.7286 20.802H35.7056V20.8807H35.6569V20.6708L35.7645 20.6684ZM35.7081 20.709V20.7662H35.7645C35.7745 20.769 35.7852 20.769 35.7953 20.7662C35.7971 20.7629 35.798 20.7592 35.798 20.7555C35.798 20.7518 35.7971 20.7481 35.7953 20.7448C35.7971 20.7414 35.798 20.7377 35.798 20.734C35.798 20.7303 35.7971 20.7266 35.7953 20.7233C35.7852 20.7205 35.7745 20.7205 35.7645 20.7233L35.7081 20.709ZM32.8891 19.7405C32.8976 19.6062 32.9481 19.4772 33.0344 19.3694C33.1207 19.2615 33.2389 19.1795 33.3746 19.1334C33.5103 19.0873 33.6576 19.0792 33.7982 19.11C33.9388 19.1408 34.0667 19.2092 34.1661 19.3068C34.2654 19.4044 34.332 19.5269 34.3575 19.6593C34.383 19.7917 34.3664 19.9281 34.3096 20.0517C34.2529 20.1754 34.1586 20.2809 34.0382 20.3553C33.9179 20.4297 33.7768 20.4697 33.6323 20.4704C33.5309 20.4716 33.4302 20.4533 33.3368 20.4165C33.2433 20.3797 33.159 20.3253 33.0892 20.2568C33.0194 20.1882 32.9656 20.107 32.9311 20.0181C32.8967 19.9292 32.8824 19.8347 32.8891 19.7405ZM14.8912 19.7405V18.6002H14.3581V18.8769C14.2676 18.7685 14.1507 18.6817 14.017 18.6236C13.8833 18.5656 13.7367 18.5379 13.5893 18.543C13.2495 18.543 12.9235 18.6686 12.6832 18.8923C12.4429 19.116 12.3079 19.4194 12.3079 19.7357C12.3079 20.052 12.4429 20.3554 12.6832 20.5791C12.9235 20.8028 13.2495 20.9284 13.5893 20.9284C13.7367 20.9335 13.8833 20.9058 14.017 20.8478C14.1507 20.7897 14.2676 20.7029 14.3581 20.5945V20.8712H14.8912V19.7405ZM12.9076 19.7405C12.9161 19.6062 12.9666 19.4772 13.0529 19.3694C13.1391 19.2615 13.2574 19.1795 13.3931 19.1334C13.5288 19.0873 13.676 19.0792 13.8167 19.11C13.9573 19.1408 14.0851 19.2092 14.1845 19.3068C14.2839 19.4044 14.3504 19.5269 14.3759 19.6593C14.4015 19.7917 14.3848 19.9281 14.3281 20.0517C14.2714 20.1754 14.177 20.2809 14.0567 20.3553C13.9363 20.4297 13.7953 20.4697 13.6508 20.4704C13.5489 20.4723 13.4477 20.4544 13.3536 20.4179C13.2595 20.3815 13.1746 20.3272 13.1043 20.2586C13.0339 20.1899 12.9796 20.1084 12.9449 20.0193C12.9102 19.9301 12.8957 19.8351 12.9025 19.7405H12.9076Z" fill="#B5B5B5"/>
</svg>
