<svg width="99" height="99" viewBox="0 0 99 99" version="1.1" xmlns="http://www.w3.org/2000/svg" xmlns:xlink="http://www.w3.org/1999/xlink">
<g id="Canvas" fill="none">
<g id="perfect-money" clip-path="url(#clip0)">
<g id="perfect_money">
<g id="layer1">
<path id="path154" d="M 39.6301 89.6533C 35.943 89.2131 34.5765 88.9315 31.4506 87.9678C 18.805 84.069 8.61644 74.7199 3.18686 62.0327C -0.404029 53.6419 -1.02096 41.8105 1.6451 32.4654C 3.99804 24.2178 8.62881 16.908 15.1376 11.1669C 20.3063 6.60783 26.0446 3.45187 32.4491 1.64583C 41.9601 -1.03624 53.6005 -0.401468 62.1704 3.26657C 71.5837 7.29558 79.061 13.9021 84.09 22.6334C 84.9566 24.1381 85.6658 25.4285 85.6658 25.5008C 85.6658 25.5731 85.9957 26.3617 86.3991 27.2533C 88.1094 31.0341 89.0319 34.5791 89.632 39.6769C 90.121 43.8311 90.1221 45.541 89.6387 50.1434C 88.809 58.0459 85.7099 65.8859 81.0274 71.9281C 78.0383 75.785 73.7132 80.0091 70.7694 81.9463C 70.1463 82.3563 69.3106 82.9144 68.9122 83.1865C 68.5138 83.4585 66.7249 84.4255 64.937 85.3353C 60.2896 87.6999 55.6904 89.048 50.1451 89.6707C 46.1905 90.1149 43.4581 90.1103 39.63 89.6533L 39.6301 89.6533ZM 25.3379 60.5054C 25.2822 60.3385 24.5598 60.0667 23.7325 59.9015C 22.6485 59.685 22.0617 59.4075 21.6323 58.9081C 21.0461 58.2266 21.0364 58.1187 21.0364 52.33L 21.0364 46.4447L 23.5369 46.4399C 29.7623 46.4288 33.9128 44.329 35.3609 40.4581C 36.0249 38.6831 36.0611 36.9707 35.4739 35.1236C 34.8703 33.225 32.5237 30.8691 30.4593 30.089C 28.2575 29.2571 24.2998 28.9648 16.42 29.0522C 10.3565 29.1195 9.36716 29.1844 9.36716 29.5152C 9.36716 29.7922 9.75247 29.9386 10.7435 30.0381C 11.8793 30.1522 12.2491 30.321 12.8594 31.0041L 13.5988 31.8318L 13.5988 44.7644C 13.5988 52.3626 13.4978 57.9629 13.3538 58.3416C 13.0114 59.2424 12.091 59.7726 10.5537 59.9547C 9.69209 60.0567 9.23893 60.2307 9.23893 60.4594C 9.23893 60.7464 10.6784 60.8085 17.339 60.8085C 23.4609 60.8085 25.4143 60.7344 25.3379 60.505L 25.3379 60.5054ZM 21.0364 37.6905L 21.0364 30.7318L 22.5991 30.9087C 24.5663 31.1313 25.3365 31.4223 26.2527 32.2893C 27.2868 33.2678 27.6531 34.0878 27.9706 36.1349C 28.2731 38.0847 27.9842 40.5426 27.2961 41.8735C 26.435 43.5388 24.4912 44.6348 22.3828 44.6436L 21.0364 44.6494L 21.0364 37.6905ZM 49.1922 60.5142C 49.1382 60.3522 48.4649 60.0596 47.6961 59.864C 46.8195 59.641 46.0113 59.223 45.5289 58.7431L 44.7595 57.9778L 44.7024 45.0933L 44.6453 32.2089L 45.2508 33.6196C 45.5838 34.3955 46.4932 36.5309 47.2715 38.3649C 48.0499 40.1989 49.1683 42.796 49.7568 44.1362C 50.3453 45.4764 51.9613 49.2278 53.3478 52.4725C 56.6704 60.2479 56.9282 60.8089 57.1786 60.8089C 57.5565 60.8089 57.9206 60.1922 58.6976 58.2362C 59.6402 55.8631 60.9146 52.8057 63.9871 45.547C 68.2782 35.4091 68.9954 33.6723 68.9954 33.4191C 68.9954 33.2818 69.1685 33.0257 69.3801 32.8501C 69.7212 32.567 69.7648 33.9465 69.7648 45.0108C 69.7648 58.966 69.7638 58.9749 68.1152 59.6638C 67.621 59.8704 66.809 60.0393 66.3108 60.0393C 65.6765 60.0393 65.4049 60.1547 65.4049 60.4241C 65.4049 60.7581 66.4877 60.8089 73.6118 60.8089C 80.7358 60.8089 81.8187 60.7581 81.8187 60.4241C 81.8187 60.1547 81.5471 60.0393 80.9128 60.0393C 79.7176 60.0393 78.396 59.468 77.877 58.7268C 77.5037 58.1938 77.4588 56.7322 77.4588 45.1172C 77.4588 35.5749 77.5405 31.9254 77.7652 31.4322C 78.1395 30.6105 79.198 30.0299 80.3313 30.0247C 81.3322 30.0198 81.9548 29.6868 81.7082 29.2878C 81.5867 29.0911 79.5893 29.0026 75.2757 29.0026L 69.0194 29.0026L 68.4785 30.221C 68.181 30.8911 66.903 33.9787 65.6386 37.0824C 64.3741 40.1861 63.0583 43.3603 62.7146 44.1362C 62.3708 44.9121 61.7284 46.4415 61.2869 47.5349C 60.8454 48.6282 60.3904 49.5228 60.2757 49.5228C 60.1093 49.5228 54.7175 37.1901 53.6308 34.3242C 53.4836 33.9358 53.1133 33.0701 52.808 32.4004C 52.5027 31.7308 52.0424 30.6923 51.7852 30.0927L 51.3175 29.0026L 44.9119 29.0026C 40.4887 29.0026 38.4517 29.0908 38.33 29.2878C 38.0649 29.7168 38.7307 30.0203 39.9466 30.0247C 40.7806 30.0276 41.2269 30.2022 41.8701 30.7769L 42.7077 31.5251L 42.7864 43.6661C 42.8296 50.3436 42.7902 56.3195 42.6992 56.9459C 42.4755 58.4825 41.3146 59.6495 39.7522 59.9083C 38.4027 60.1319 38.1593 60.2475 38.3587 60.5701C 38.586 60.938 49.3149 60.8827 49.1921 60.5142L 49.1922 60.5142Z" transform="translate(4 5)" fill="#D6251C"/>
</g>
</g>
</g>
</g>
<defs>
<clipPath id="clip0">
<rect width="99" height="99" fill="white"/>
</clipPath>
</defs>
</svg>
