<svg width="41" height="40" viewBox="0 0 41 40" fill="none" xmlns="http://www.w3.org/2000/svg">
<path fill-rule="evenodd" clip-rule="evenodd" d="M17.5 3C7.83493 3 0 10.8349 0 20.5C0 30.1651 7.83493 38 17.5 38C27.1651 38 35 30.1651 35 20.5C35 10.8349 27.1651 3 17.5 3ZM17.5232 22.0735C18.7838 22.0735 19.349 22.0403 19.4584 22.0322L19.4547 22.0313C23.3222 21.8621 26.2071 21.1964 26.2071 20.4012C26.2071 19.6059 23.3213 18.9402 19.4547 18.7702V21.3701C19.3462 21.3799 18.7437 21.4294 17.5406 21.4294C16.5379 21.4294 15.8124 21.3871 15.559 21.3692V18.7684C11.6842 18.9393 8.79197 19.6041 8.79197 20.4012C8.79197 21.1982 11.6842 21.8639 15.559 22.0322C15.8087 22.0439 16.5206 22.0735 17.5232 22.0735ZM19.4584 18.5004V18.5012L19.4574 18.5003C19.4578 18.5003 19.4581 18.5003 19.4584 18.5004ZM19.4584 16.1739V18.5004C23.8358 18.7001 27.125 19.5565 27.125 20.5829C27.125 21.6093 23.8327 22.4658 19.4574 22.6646V30.125H15.558V22.6673C11.1728 22.4676 7.875 21.6111 7.875 20.5838C7.875 19.5564 11.1728 18.6991 15.558 18.5003V16.1739H10.1629V12.625H24.8545V16.1739H19.4584Z" fill="#50AF95"/>
<path d="M31.0284 29C36.0146 29 40.0568 24.9706 40.0568 20C40.0568 15.0294 36.0146 11 31.0284 11C26.0421 11 22 15.0294 22 20C22 24.9706 26.0421 29 31.0284 29Z" fill="#FF060A"/>
<path d="M37.0474 18.3652C36.4832 17.8458 35.7026 17.0527 35.0667 16.4901L35.0291 16.4639C34.9667 16.4138 34.8959 16.3745 34.8205 16.3477C33.2874 16.0627 26.1532 14.7333 26.014 14.7502C25.975 14.7556 25.9377 14.7697 25.9049 14.7914L25.8692 14.8195C25.8252 14.8641 25.7918 14.9179 25.7714 14.977L25.762 15.0014V15.1345V15.1552C26.5651 17.3845 29.7363 24.6877 30.3608 26.4013C30.3984 26.5177 30.4699 26.739 30.6035 26.7501H30.6335C30.705 26.7501 31.0097 26.3489 31.0097 26.3489C31.0097 26.3489 36.4568 19.7639 37.008 19.0626C37.0793 18.9763 37.1424 18.8834 37.196 18.7852C37.2099 18.7083 37.2034 18.6293 37.1773 18.5556C37.1513 18.4821 37.1066 18.4164 37.0474 18.3652ZM32.4074 19.132L34.732 17.2101L36.0957 18.4627L32.4074 19.132ZM31.5045 19.0064L27.5018 15.7364L33.9777 16.927L31.5045 19.0064ZM31.8657 19.8633L35.9622 19.2052L31.2787 24.8302L31.8657 19.8633ZM26.9582 16.0627L31.1697 19.6252L30.5602 24.8338L26.9582 16.0627Z" fill="white"/>
</svg>
