<svg width="41" height="40" viewBox="0 0 41 40" fill="none" xmlns="http://www.w3.org/2000/svg">
<path fill-rule="evenodd" clip-rule="evenodd" d="M17.5 3C7.83493 3 0 10.8349 0 20.5C0 30.1651 7.83493 38 17.5 38C27.1651 38 35 30.1651 35 20.5C35 10.8349 27.1651 3 17.5 3ZM17.5232 22.0735C18.7838 22.0735 19.349 22.0403 19.4584 22.0322L19.4547 22.0313C23.3222 21.8621 26.2071 21.1964 26.2071 20.4012C26.2071 19.6059 23.3213 18.9402 19.4547 18.7702V21.3701C19.3462 21.3799 18.7437 21.4294 17.5406 21.4294C16.5379 21.4294 15.8124 21.3871 15.559 21.3692V18.7684C11.6842 18.9393 8.79197 19.6041 8.79197 20.4012C8.79197 21.1982 11.6842 21.8639 15.559 22.0322C15.8087 22.0439 16.5206 22.0735 17.5232 22.0735ZM19.4584 18.5004V18.5012L19.4574 18.5003C19.4578 18.5003 19.4581 18.5003 19.4584 18.5004ZM19.4584 16.1739V18.5004C23.8358 18.7001 27.125 19.5565 27.125 20.5829C27.125 21.6093 23.8327 22.4658 19.4574 22.6646V30.125H15.558V22.6673C11.1728 22.4676 7.875 21.6111 7.875 20.5838C7.875 19.5564 11.1728 18.6991 15.558 18.5003V16.1739H10.1629V12.625H24.8545V16.1739H19.4584Z" fill="#50AF95"/>
<path d="M31.0284 29C36.0146 29 40.0568 24.9706 40.0568 20C40.0568 15.0294 36.0146 11 31.0284 11C26.0421 11 22 15.0294 22 20C22 24.9706 26.0421 29 31.0284 29Z" fill="#627EEB"/>
<path d="M31.3736 14L31.2917 14.2734V22.2081L31.3736 22.2884L35.1225 20.1113L31.3736 14Z" fill="white"/>
<path d="M31.3739 14L27.625 20.1113L31.3739 22.2885V18.4372V14Z" fill="#D3D3D1"/>
<path d="M31.3738 22.9858L31.3276 23.0411V25.8676L31.3738 26L35.1249 20.8098L31.3738 22.9858Z" fill="white"/>
<path d="M31.3739 25.9999V22.9857L27.625 20.8097L31.3739 25.9999Z" fill="#D3D3D1"/>
<path d="M31.3738 22.2885L35.1226 20.1114L31.3738 18.4373V22.2885Z" fill="#CCCCCC"/>
<path d="M27.625 20.1114L31.3738 22.2885V18.4373L27.625 20.1114Z" fill="#B8B8B8"/>
</svg>
