<svg width="40" height="13" viewBox="0 0 40 13" fill="none" xmlns="http://www.w3.org/2000/svg">
<path d="M11.7912 0.225769L8.4344 8.71659L7.08038 1.49516C6.91113 0.677108 6.29054 0.225769 5.58532 0.225769H0.0846259L0 0.592482C1.12835 0.84636 2.39774 1.24128 3.18758 1.66441C3.66713 1.91829 3.80818 2.14396 3.94922 2.76455L6.51621 12.7222H9.95767L15.2045 0.225769H11.7912Z" fill="#B6B2B2"/>
<path d="M16.5873 0.225769L13.9075 12.7222H17.1515L19.8031 0.225769H16.5873Z" fill="#B6B2B2"/>
<path d="M24.0624 3.69534C24.0624 3.244 24.5138 2.76445 25.4446 2.65162C25.896 2.5952 27.1936 2.53878 28.6322 3.21579L29.1964 0.564174C28.4066 0.282087 27.4193 0 26.1781 0C22.9905 0 20.7338 1.69252 20.7056 4.14668C20.6774 5.95204 22.3135 6.93934 23.5264 7.53172C24.7958 8.15232 25.219 8.51903 25.1908 9.0832C25.1908 9.92946 24.1752 10.2962 23.2726 10.2962C21.6365 10.3244 20.7056 9.84484 19.9439 9.50633L19.3516 12.2426C20.1132 12.5811 21.4954 12.8914 22.9341 12.8914C26.3191 12.8914 28.5476 11.2271 28.5476 8.60365C28.604 5.35965 24.0342 5.16219 24.0624 3.69534Z" fill="#B6B2B2"/>
<path d="M33.3992 8.29335L35.1199 3.6107L36.079 8.29335H33.3992ZM34.6404 0.225658C34.0198 0.225658 33.4838 0.592371 33.2581 1.12834L28.4062 12.6939H31.7913L32.4683 10.8321H36.615L37.0099 12.6939H40L37.4048 0.197449H34.6404V0.225658Z" fill="#B6B2B2"/>
</svg>
